<?xml version="1.0" encoding="UTF-8"?>
<svg width="15px" height="15px" viewBox="0 0 15 15" version="1.1" xmlns="http://www.w3.org/2000/svg" xmlns:xlink="http://www.w3.org/1999/xlink">
    <!-- Generator: Sketch 48.2 (47327) - http://www.bohemiancoding.com/sketch -->
    <title>gz_gx</title>
    <desc>Created with Sketch.</desc>
    <defs></defs>
    <g id="icon资源整合" stroke="none" stroke-width="1" fill="none" fill-rule="evenodd" transform="translate(-257.000000, -202.000000)">
        <g id="gz_gx" transform="translate(257.000000, 202.000000)">
            <path d="M2.5,0.5 L12.5,0.5 C13.605,0.5 14.5,1.395 14.5,2.5 L14.5,12.5 C14.5,13.604 13.605,14.5 12.5,14.5 L2.5,14.5 C1.395,14.5 0.5,13.604 0.5,12.5 L0.5,2.5 C0.5,1.395 1.395,0.5 2.5,0.5" id="Fill-1" fill="#FFFFFF"></path>
            <path d="M2.5,0.5 L12.5,0.5 C13.605,0.5 14.5,1.395 14.5,2.5 L14.5,12.5 C14.5,13.604 13.605,14.5 12.5,14.5 L2.5,14.5 C1.395,14.5 0.5,13.604 0.5,12.5 L0.5,2.5 C0.5,1.395 1.395,0.5 2.5,0.5 Z" id="Stroke-3" stroke="#999999"></path>
        </g>
    </g>
</svg>