<?xml version="1.0" encoding="UTF-8" standalone="no"?>
<svg width="14px" height="14px" viewBox="0 0 14 14" version="1.1" xmlns="http://www.w3.org/2000/svg" xmlns:xlink="http://www.w3.org/1999/xlink">
    <!-- Generator: Sketch 3.8.3 (29802) - http://www.bohemiancoding.com/sketch -->
    <title>Group 2</title>
    <desc>Created with Sketch.</desc>
    <defs>
        <path d="M0,12.9931545 C0,13.5492199 0.449948758,14 1.00684547,14 L12.9931545,14 C13.5492199,14 14,13.5500512 14,12.9931545 L14,1.00684547 C14,0.450780073 13.5500512,0 12.9931545,0 L1.00684547,0 C0.450780073,0 0,0.449948758 0,1.00684547 L0,12.9931545 Z" id="path-1"></path>
        <mask id="mask-2" maskContentUnits="userSpaceOnUse" maskUnits="objectBoundingBox" x="0" y="0" width="14" height="14" fill="white">
            <use xlink:href="#path-1"></use>
        </mask>
        <polygon id="path-3" points="6.50025 11 13 11 13 0 6.50025 0 0.0005 0 0.0005 11"></polygon>
    </defs>
    <g id="Page-1" stroke="none" stroke-width="1" fill="none" fill-rule="evenodd">
        <g id="Group-2">
            <use id="Fill-1-Copy-13" stroke="#5889F6" mask="url(#mask-2)" stroke-width="2" xlink:href="#path-1"></use>
            <g id="Page-1" transform="translate(1.000000, 2.000000)">
                <mask id="mask-4" fill="white">
                    <use xlink:href="#path-3"></use>
                </mask>
                <g id="Clip-2"></g>
                <path d="M12.6655,0 C8.7105,2.377 5.8415,5.377 4.5525,6.882 L1.3945,4.456 L0.0005,5.559 L5.4565,11 C6.3955,8.642 9.3695,4.032 13.0005,0.757 L12.6665,0 L12.6655,0 Z" id="Fill-1" fill="#5889F6" mask="url(#mask-4)"></path>
            </g>
        </g>
    </g>
</svg>